# xmcd
#
# Track frame offsets: 
#        150
#        450
#        37265
#        69492
#        106995
#        133972
#        166250
#        200085
#        236330
#        261132
#        292515
#
# Disc length: 4199 seconds
#
# Revision: 0
# Processed by: cddbd v1.5.2PL0 Copyright (c) Steve Scherf et al.
# Submitted via: ExactAudioCopy v0.95b4
#
DISCID=9510650b
DTITLE=Eric Clapton - 1989-02-03 - Beetle Clasher
DYEAR=1989
DGENRE=Blues
TTITLE0=Opening
TTITLE1=Crossroads
TTITLE2=White Room
TTITLE3=I Shot The Sheriff
TTITLE4=Bell Bottom Blues
TTITLE5=Lay Down Sally
TTITLE6=Wonderful Tonight
TTITLE7=Wanna Make Love To You
TTITLE8=After Midnight
TTITLE9=Can't Find My Way Home
TTITLE10=Forever Man
EXTD=
EXTT0=
EXTT1=
EXTT2=
EXTT3=
EXTT4=
EXTT5=
EXTT6=
EXTT7=
EXTT8=
EXTT9=
EXTT10=
PLAYORDER=
